<svg width="280" height="140"><defs><g id="XIL_BifLabel"><rect width="32" height="16" x="0" y="0" rx="3" ry="3" style="fill:#906;stroke:#000;stroke-width:1"/></g><g id="XIL_busconn_TARGET"><circle cx="12" cy="12" r="12" style="fill:#c39;stroke:#906;stroke-width:1"/><circle cx="12.5" cy="12" r="7" style="fill:#906;stroke:none"/></g><g id="XIL_busconn_INITIATOR"><rect width="24" height="24" x="0" y="0" style="fill:#c39;stroke:#906;stroke-width:1"/><rect width="14" height="14" x="5.5" y="5" style="fill:#906;stroke:none"/></g><g id="LMB_BifLabel"><rect width="32" height="16" x="0" y="0" rx="3" ry="3" style="fill:#77f;stroke:#000;stroke-width:1"/></g><g id="LMB_busconn_SLAVE"><circle cx="12" cy="12" r="12" style="fill:#ddf;stroke:#77f;stroke-width:1"/><circle cx="12.5" cy="12" r="7" style="fill:#77f;stroke:none"/></g><g id="LMB_busconn_MASTER"><rect width="24" height="24" x="0" y="0" style="fill:#ddf;stroke:#77f;stroke-width:1"/><rect width="14" height="14" x="5.5" y="5" style="fill:#77f;stroke:none"/></g><g id="PLBV46_BifLabel"><rect width="32" height="16" x="0" y="0" rx="3" ry="3" style="fill:#b95;stroke:#000;stroke-width:1"/></g><g id="PLBV46_busconn_SLAVE"><circle cx="12" cy="12" r="12" style="fill:#ffd;stroke:#b95;stroke-width:1"/><circle cx="12.5" cy="12" r="7" style="fill:#b95;stroke:none"/></g><g id="PLBV46_busconn_MASTER"><rect width="24" height="24" x="0" y="0" style="fill:#ffd;stroke:#b95;stroke-width:1"/><rect width="14" height="14" x="5.5" y="5" style="fill:#b95;stroke:none"/></g><g id="KEY_BifLabel"><rect width="32" height="16" x="0" y="0" rx="3" ry="3" style="fill:#444;stroke:#000;stroke-width:1"/></g><g id="KEY_busconn_SLAVE"><circle cx="12" cy="12" r="12" style="fill:#888;stroke:#444;stroke-width:1"/><circle cx="12.5" cy="12" r="7" style="fill:#444;stroke:none"/></g><g id="KEY_busconn_MASTER"><rect width="24" height="24" x="0" y="0" style="fill:#888;stroke:#444;stroke-width:1"/><rect width="14" height="14" x="5.5" y="5" style="fill:#444;stroke:none"/></g><g id="KEY_busconn_MASTER_SLAVE"><circle cx="12" cy="12" r="12" style="fill:#888;stroke:#444;stroke-width:1"/><circle cx="12.5" cy="12" r="7" style="fill:#444;stroke:none"/><rect width="24" height="12" x="0" y="12" style="fill:#888;stroke:#444;stroke-width:1"/><rect width="14" height="7" x="5.5" y="12" style="fill:#444;stroke:none"/></g><g id="KEY_busconn_TARGET"><circle cx="12" cy="12" r="12" style="fill:#888;stroke:#444;stroke-width:1"/><circle cx="12.5" cy="12" r="7" style="fill:#444;stroke:none"/></g><g id="KEY_busconn_INITIATOR"><rect width="24" height="24" x="0" y="0" style="fill:#888;stroke:#444;stroke-width:1"/><rect width="14" height="14" x="5.5" y="5" style="fill:#444;stroke:none"/></g><g id="KEY_busconn_MONITOR"><rect width="24" height="7" x="0" y=".5" style="fill:#444;stroke:none"/><rect width="24" height="7" x="0" y="16" style="fill:#444;stroke:none"/></g><g id="KEY_busconn_USER"><circle cx="12" cy="12" r="12" style="fill:#888;stroke:#444;stroke-width:1"/><circle cx="12.5" cy="12" r="7" style="fill:#444;stroke:none"/></g><g id="KEY_busconn_TRANSPARENT"><circle cx="12" cy="12" r="12" style="fill:#fff;stroke:#444;stroke-width:1"/><circle cx="12.5" cy="12" r="7" style="fill:#fff;stroke:none"/></g><g id="HCurve"><path d="m 0 0, a 16 16, 0,0,0, 32,0, z" style="fill:#f0f0f0;fill-opacity:1;stroke:#000;stroke-width:1.5"/><line x1="0" x2="32" y1="0" y2="0" style="stroke:#f0f0f0;stroke-width:3"/></g><g id="IPD_StandardBody"><rect width="276" height="136" x="0" y="0" style="fill:#f0f0f0;fill-opacity:1;stroke:#000;stroke-width:1"/><rect width="180" height="104" x="48" y="16" style="fill:#fff;fill-opacity:1;stroke:#000;stroke-width:1.5"/><use xmlns:xlink="http://www.w3.org/1999/xlink" x="122" y="16" xlink:href="#HCurve"/></g><g id="IPD_PORT"><rect width="8" height="8" style="fill:#888;stroke-width:1;stroke:#000"/></g><g id="IPD_SPort"><line x1="0" x2="8" y1="0" y2="0" style="stroke:#888;stroke-width:2;stroke-opacity:1"/></g><g id="IPD_PortClk"><line x1="0" x2="7" y1="0" y2="3" style="stroke:#000;stroke-width:1;stroke-opacity:1"/><line x1="7" x2="0" y1="3" y2="7" style="stroke:#000;stroke-width:1;stroke-opacity:1"/></g></defs><use xmlns:xlink="http://www.w3.org/1999/xlink" x="0" y="0" xlink:href="#IPD_StandardBody"/><text x="138" y="72" fill="#AA0017" stroke="none" font-family="Verdana Arial Helvetica san-serif" font-size="8pt" font-style="italic" font-weight="bold" text-anchor="middle">clock_generator</text><text x="138" y="84" fill="#000" stroke="none" font-family="Courier Arial Helvetica san-serif" font-size="8pt" font-style="italic" font-weight="bold" text-anchor="middle">clock_generator_0</text><use xmlns:xlink="http://www.w3.org/1999/xlink" x="40" y="24" xlink:href="#IPD_SPort"/><use xmlns:xlink="http://www.w3.org/1999/xlink" x="48" y="22" xlink:href="#IPD_PortClk"/><text x="60" y="30" fill="#000" stroke="none" font-family="Verdana Arial Helvetica san-serif" font-size="8pt" font-style="normal" font-weight="bold" text-anchor="middle">0</text><use xmlns:xlink="http://www.w3.org/1999/xlink" x="40" y="48" xlink:href="#IPD_SPort"/><text x="60" y="54" fill="#000" stroke="none" font-family="Verdana Arial Helvetica san-serif" font-size="8pt" font-style="normal" font-weight="bold" text-anchor="middle">4</text><use xmlns:xlink="http://www.w3.org/1999/xlink" x="228" y="24" xlink:href="#IPD_SPort"/><text x="216" y="30" fill="#000" stroke="none" font-family="Verdana Arial Helvetica san-serif" font-size="8pt" font-style="normal" font-weight="bold" text-anchor="middle">1</text><use xmlns:xlink="http://www.w3.org/1999/xlink" x="228" y="48" xlink:href="#IPD_SPort"/><text x="216" y="54" fill="#000" stroke="none" font-family="Verdana Arial Helvetica san-serif" font-size="8pt" font-style="normal" font-weight="bold" text-anchor="middle">2</text><use xmlns:xlink="http://www.w3.org/1999/xlink" x="228" y="72" xlink:href="#IPD_SPort"/><text x="216" y="78" fill="#000" stroke="none" font-family="Verdana Arial Helvetica san-serif" font-size="8pt" font-style="normal" font-weight="bold" text-anchor="middle">3</text><use xmlns:xlink="http://www.w3.org/1999/xlink" x="228" y="96" xlink:href="#IPD_SPort"/><text x="216" y="102" fill="#000" stroke="none" font-family="Verdana Arial Helvetica san-serif" font-size="8pt" font-style="normal" font-weight="bold" text-anchor="middle">5</text></svg>